# xmcd
#
# Track frame offsets:
#	150
#	13925
#	27062
#	41987
#	60575
#	83100
#	103800
#	116862
#	129550
#	149912
#
# Disc length: 2207 seconds
#
# Revision: 0
# Processed by: cddbd v1.5.2PL0 Copyright (c) Steve Scherf et al.
# Submitted via: EasyCDDAExtractor 10.0.5.1
#
DISCID=94089d0a
DTITLE=Kayko Röyhkä and Narttu - Mikki Hiiren Myöhemmät Vaiheet
DYEAR=1987
DGENRE=Blues
TTITLE0=Preerian Kuu
TTITLE1=Miljoonapulu
TTITLE2=Missä Viipyy Armaani?
TTITLE3=Mikki Hiiren Myöhemmät Vaiheet
TTITLE4=Sanovat, Että Olen Homo
TTITLE5=Andien Lentäjä
TTITLE6=Häijy Mies
TTITLE7=Pelkäänkö?
TTITLE8=Poika ja Pingispallo
TTITLE9=Mimio
EXTD=
EXTT0=
EXTT1=
EXTT2=
EXTT3=
EXTT4=
EXTT5=
EXTT6=
EXTT7=
EXTT8=
EXTT9=
PLAYORDER=
